<?xml version="1.0" encoding="utf-8"?><!-- Uploaded to: SVG Repo, www.svgrepo.com, Generator: SVG Repo Mixer Tools -->
<svg width="800px" height="800px" viewBox="0 0 163 163" xmlns="http://www.w3.org/2000/svg">
<title>Gestures</title>
<circle cx="83.5" cy="81.5" r="80" fill="#adeada"/>
<path d="M131.83,81.74l-5-5c4.47,10.55.37,25.79-11.26,37.1a41.55,41.55,0,0,1-14.72,9.38,43.46,43.46,0,0,1-23.6,1.48l-19.2-3.81a7.4,7.4,0,0,0-.49,5.69c1.25,3.91,4.55,4.57,7,4.82l21.68,4.3a43.46,43.46,0,0,0,23.6-1.48,41.55,41.55,0,0,0,14.72-9.38C138.68,111.14,141.73,91.64,131.83,81.74Z" fill="#95e2d6"/>
<path d="M76.8,45.74A7.43,7.43,0,0,1,87.31,35.23l35.51,35.51c9.9,9.9,6.85,29.4-7.25,43.12a41.55,41.55,0,0,1-14.72,9.38,43.46,43.46,0,0,1-23.6,1.48l-21.68-4.3c-2.47-.25-5.77-0.91-7-4.82a7.43,7.43,0,0,1,4.82-9.34l1.69-.07,18.38-.73L36.66,68.68A7.43,7.43,0,1,1,47.17,58.16l-6.7-6.7A7.43,7.43,0,0,1,51,40.95l6.7,6.7A7.43,7.43,0,1,1,68.2,37.14Z" fill="#fce7d0"/>
<path d="M76.22,35.81a7.49,7.49,0,0,0-.05,10.56l-8.6-8.6c-2.9-2.9-8.95-.83-11.85,2.07,0,0,4.13-4.13,12.65,5.8l39.78,39.78c8,8,7.6,22.34-.42,34.8a44.55,44.55,0,0,0,7.2-5.72c14.1-13.71,17.26-33.32,7.36-43.23L86.78,35.76A7.48,7.48,0,0,0,76.22,35.81Z" fill="#f4c7ad"/>
<path d="M68.2,80.69a1.5,1.5,0,0,1-1.06-.44L39.41,52.52A8.93,8.93,0,1,1,52,39.89L81,68.8a1.5,1.5,0,0,1-2.12,2.12L49.92,42a5.93,5.93,0,0,0-8.39,8.39L69.26,78.13A1.5,1.5,0,0,1,68.2,80.69Z" fill="#5a150b"/>
<path d="M90.41,60.85a1.5,1.5,0,0,1-1.06-.44L67.14,38.2a5.93,5.93,0,1,0-8.39,8.39,1.5,1.5,0,0,1-2.12,2.12,8.93,8.93,0,0,1,6.31-15.25h0a8.89,8.89,0,0,1,6.32,2.62L91.47,58.29A1.5,1.5,0,0,1,90.41,60.85Z" fill="#5a150b"/>
<path d="M86.76,127.18a50.39,50.39,0,0,1-9.8-1l-21.61-4.28c-1.87-.19-6.59-0.73-8.23-5.85a9,9,0,0,1,5.79-11.23,1.5,1.5,0,0,1,.4-0.07L70,104.1,35.6,69.74A8.93,8.93,0,1,1,48.24,57.1a1.5,1.5,0,0,1-2.12,2.12,5.93,5.93,0,1,0-8.39,8.39L74.51,104.4a1.5,1.5,0,0,1-1,2.56l-19.85.79a6,6,0,0,0-3.67,7.4c0.88,2.74,2.93,3.5,5.74,3.78l0.14,0,21.68,4.3a42,42,0,0,0,22.79-1.42,40.06,40.06,0,0,0,14.2-9.05c7.82-7.6,12.52-17.56,12.58-26.64,0-5.84-1.81-10.8-5.35-14.34L86.25,36.29a5.93,5.93,0,0,0-8.39,8.39,1.5,1.5,0,0,1-2.12,2.12A8.93,8.93,0,1,1,88.37,34.17l35.51,35.51c4.12,4.12,6.27,9.82,6.23,16.48C130,96,125,106.78,116.62,114.93a43,43,0,0,1-15.24,9.71A41.84,41.84,0,0,1,86.76,127.18Z" fill="#5a150b"/></svg>
