<svg xmlns="http://www.w3.org/2000/svg"  viewBox="0 0 100 100" width="100px" height="100px"><path fill="#c8ede6" d="M87.193,56.007c0.3-0.616,0.566-1.264,0.796-1.943c2.633-7.77-1.349-17.078-9.733-19.325c-0.906-11.384-8.906-19.193-17.941-20.526C49.974,12.689,40.5,19.259,37.349,29.7c-3.799-1.346-7.501-1.182-10.99,0.857c-1.583,0.732-3.031,1.812-4.33,3.233c-1.907,2.086-3.147,4.719-3.652,7.495c-0.748,0.118-1.483,0.236-2.176,0.484c-4.04,1.449-6.589,4.431-7.288,8.923c-0.435,2.797,0.443,5.587,0.933,6.714c1.935,4.455,6.422,6.98,10.981,6.312c0.227-0.033,0.557,0.069,0.752,0.233c0.241,7.12,3.698,13.417,8.884,17.014c8.321,5.772,19.027,3.994,25.781-3.921c2.894,2.96,6.338,4.398,10.384,3.876c4.023-0.519,7.147-2.739,9.426-6.349c1.053,0.283,2.051,0.691,3.083,0.804c4.042,0.442,7.297-1.184,9.732-4.8c0.083-0.124,0.203-0.219,0.306-0.328c0.348-0.798,0.696-1.596,1.044-2.394c0.155-1.211,0.429-2.423,0.443-3.632C90.701,60.965,89.37,57.997,87.193,56.007z"/><path fill="#fdfcef" d="M39.296,51.379c0,0,11.691,0,11.762,0c2.7,0,4.888-2.189,4.888-4.889c0-2.355-1.666-4.321-3.884-4.784c0.026-0.206,0.043-0.415,0.043-0.628c0-2.796-2.267-5.063-5.063-5.063c-1.651,0-3.113,0.794-4.037,2.017c-0.236-3.113-3.017-5.514-6.27-5.116c-2.379,0.291-4.346,2.13-4.784,4.486c-0.14,0.756-0.126,1.489,0.014,2.177c-0.638-0.687-1.546-1.119-2.557-1.119c-1.85,0-3.361,1.441-3.48,3.261c-0.84-0.186-1.754-0.174-2.717,0.188c-1.84,0.691-3.15,2.423-3.227,4.387c-0.109,2.789,2.12,5.085,4.885,5.085c0.21,0,0.948,0,1.118,0H36.14"/><path fill="#472b29" d="M51.058,51.879H39.297c-0.276,0-0.5-0.224-0.5-0.5s0.224-0.5,0.5-0.5h11.762c2.42,0,4.389-1.969,4.389-4.388c0-2.066-1.466-3.873-3.486-4.295c-0.254-0.053-0.426-0.292-0.394-0.55c0.022-0.186,0.039-0.375,0.039-0.567c0-2.516-2.047-4.563-4.563-4.563c-1.438,0-2.765,0.663-3.639,1.818c-0.125,0.166-0.341,0.237-0.539,0.178c-0.2-0.059-0.342-0.234-0.358-0.441c-0.104-1.377-0.778-2.671-1.85-3.549c-1.083-0.887-2.453-1.28-3.86-1.109c-2.165,0.265-3.955,1.943-4.354,4.081c-0.123,0.667-0.118,1.336,0.014,1.987c0.044,0.22-0.062,0.442-0.262,0.544c-0.196,0.103-0.441,0.06-0.595-0.104c-0.575-0.619-1.353-0.96-2.19-0.96c-1.568,0-2.878,1.228-2.981,2.794c-0.01,0.146-0.082,0.28-0.199,0.367c-0.116,0.087-0.27,0.119-0.407,0.088c-0.843-0.187-1.639-0.131-2.434,0.167c-1.668,0.626-2.835,2.209-2.902,3.938c-0.047,1.208,0.387,2.35,1.222,3.218c0.835,0.869,1.959,1.347,3.163,1.347h11.269c0.276,0,0.5,0.224,0.5,0.5s-0.224,0.5-0.5,0.5H24.871c-1.479,0-2.858-0.587-3.884-1.653c-1.025-1.066-1.559-2.469-1.501-3.951c0.084-2.126,1.511-4.069,3.551-4.835c0.801-0.3,1.628-0.401,2.468-0.298c0.378-1.823,1.998-3.182,3.905-3.182c0.685,0,1.354,0.18,1.944,0.51c-0.001-0.385,0.034-0.772,0.106-1.159c0.477-2.562,2.621-4.574,5.215-4.891c1.687-0.208,3.32,0.267,4.615,1.328c1.004,0.823,1.717,1.951,2.038,3.193c1.013-0.916,2.319-1.425,3.714-1.425c3.067,0,5.563,2.496,5.563,5.563c0,0.083-0.002,0.166-0.007,0.249c2.254,0.673,3.848,2.777,3.848,5.164C56.447,49.462,54.03,51.879,51.058,51.879z"/><path fill="#fdfcef" d="M36.463,40.61c-1.808-0.119-3.365,1.13-3.476,2.789c-0.014,0.206-0.005,0.409,0.025,0.606c-0.349-0.394-0.865-0.661-1.458-0.7c-1.085-0.071-2.022,0.645-2.158,1.62c-0.197-0.054-0.403-0.09-0.616-0.104c-1.582-0.104-2.944,0.989-3.042,2.441"/><path fill="#472b29" d="M25.738,47.512c-0.006,0-0.011,0-0.017,0c-0.138-0.009-0.242-0.128-0.232-0.266c0.105-1.588,1.589-2.791,3.308-2.674c0.135,0.009,0.271,0.027,0.409,0.053c0.272-0.968,1.255-1.637,2.365-1.568c0.425,0.028,0.823,0.16,1.163,0.382c0.001-0.018,0.002-0.037,0.004-0.055c0.119-1.794,1.809-3.14,3.742-3.022c0.138,0.009,0.242,0.128,0.232,0.266c-0.008,0.137-0.104,0.254-0.266,0.233c-1.659-0.11-3.108,1.038-3.211,2.556c-0.012,0.186-0.004,0.372,0.023,0.552c0.017,0.11-0.041,0.217-0.141,0.265c-0.101,0.045-0.221,0.022-0.294-0.061c-0.317-0.359-0.786-0.583-1.287-0.616c-0.936-0.068-1.775,0.555-1.893,1.405c-0.011,0.071-0.051,0.134-0.11,0.174c-0.059,0.04-0.132,0.053-0.203,0.033c-0.193-0.052-0.379-0.083-0.568-0.096c-1.448-0.095-2.688,0.896-2.776,2.208C25.978,47.411,25.869,47.512,25.738,47.512z"/><path fill="#fdfcef" d="M53.037,42.279c-1.699-0.801-3.664-0.234-4.389,1.267c-0.09,0.186-0.157,0.379-0.201,0.574"/><path fill="#472b29" d="M48.448,44.369c-0.018,0-0.036-0.002-0.055-0.006c-0.135-0.03-0.22-0.164-0.189-0.299c0.05-0.217,0.123-0.429,0.221-0.628c0.782-1.619,2.896-2.243,4.72-1.383c0.125,0.059,0.179,0.208,0.12,0.333c-0.06,0.125-0.211,0.178-0.333,0.12c-1.572-0.74-3.393-0.227-4.057,1.15c-0.081,0.165-0.143,0.339-0.183,0.52C48.666,44.29,48.562,44.369,48.448,44.369z"/><path fill="#fff" d="M18.406 57.702H8.376c-.276 0-.5-.224-.5-.5s.224-.5.5-.5h10.03c.276 0 .5.224.5.5S18.682 57.702 18.406 57.702zM21.287 57.702H19.84c-.276 0-.5-.224-.5-.5s.224-.5.5-.5h1.446c.276 0 .5.224.5.5S21.563 57.702 21.287 57.702zM25.341 57.702h-2.546c-.276 0-.5-.224-.5-.5s.224-.5.5-.5h2.546c.276 0 .5.224.5.5S25.618 57.702 25.341 57.702zM25.341 59.566h-9.616c-.276 0-.5-.224-.5-.5s.224-.5.5-.5h9.616c.276 0 .5.224.5.5S25.618 59.566 25.341 59.566zM13.994 59.566h-.58c-.276 0-.5-.224-.5-.5s.224-.5.5-.5h.58c.276 0 .5.224.5.5S14.27 59.566 13.994 59.566zM11.617 59.566h-1.456c-.276 0-.5-.224-.5-.5s.224-.5.5-.5h1.456c.276 0 .5.224.5.5S11.893 59.566 11.617 59.566zM20.753 55.837h-5.027c-.276 0-.5-.224-.5-.5s.224-.5.5-.5h5.027c.276 0 .5.224.5.5S21.029 55.837 20.753 55.837zM20.753 53.972h-1.258c-.276 0-.5-.224-.5-.5s.224-.5.5-.5h1.258c.276 0 .5.224.5.5S21.029 53.972 20.753 53.972zM17.484 61.432h-1.759c-.276 0-.5-.224-.5-.5s.224-.5.5-.5h1.759c.276 0 .5.224.5.5S17.76 61.432 17.484 61.432zM70.036 21.766h-10.03c-.276 0-.5-.224-.5-.5s.224-.5.5-.5h10.03c.276 0 .5.224.5.5S70.312 21.766 70.036 21.766zM72.918 21.766h-1.446c-.276 0-.5-.224-.5-.5s.224-.5.5-.5h1.446c.276 0 .5.224.5.5S73.194 21.766 72.918 21.766zM76.971 21.766h-2.546c-.276 0-.5-.224-.5-.5s.224-.5.5-.5h2.546c.276 0 .5.224.5.5S77.248 21.766 76.971 21.766zM74.946 18.036H65.33c-.276 0-.5-.224-.5-.5s.224-.5.5-.5h9.616c.276 0 .5.224.5.5S75.222 18.036 74.946 18.036zM63.598 18.036h-.58c-.276 0-.5-.224-.5-.5s.224-.5.5-.5h.58c.276 0 .5.224.5.5S63.875 18.036 63.598 18.036zM61.221 18.036h-1.456c-.276 0-.5-.224-.5-.5s.224-.5.5-.5h1.456c.276 0 .5.224.5.5S61.498 18.036 61.221 18.036zM72.382 19.901h-5.027c-.276 0-.5-.224-.5-.5s.224-.5.5-.5h5.027c.276 0 .5.224.5.5S72.659 19.901 72.382 19.901z"/><path fill="#fff" d="M72.382 18.036h-1.257c-.276 0-.5-.224-.5-.5s.224-.5.5-.5h1.257c.276 0 .5.224.5.5S72.659 18.036 72.382 18.036zM65.9 19.901h-1.759c-.276 0-.5-.224-.5-.5s.224-.5.5-.5H65.9c.276 0 .5.224.5.5S66.176 19.901 65.9 19.901z"/><path fill="#ee3e54" d="M38.899 54.409L29.793 66.766 38.921 66.89 41.743 75.571 50.771 63.319"/><path fill="#472b29" d="M41.743,76.271c-0.037,0-0.074-0.003-0.111-0.009c-0.26-0.042-0.474-0.225-0.555-0.475l-2.666-8.205l-8.627-0.117c-0.262-0.003-0.5-0.153-0.617-0.388c-0.116-0.235-0.092-0.516,0.063-0.727l9.105-12.358c0.229-0.311,0.667-0.379,0.979-0.148c0.312,0.229,0.378,0.667,0.148,0.979l-8.297,11.261l7.766,0.105c0.3,0.004,0.563,0.198,0.656,0.483l2.4,7.386l8.22-11.155c0.228-0.312,0.667-0.378,0.979-0.148c0.312,0.229,0.378,0.667,0.148,0.979l-9.028,12.252C42.173,76.167,41.964,76.271,41.743,76.271z"/><path fill="#ee3e54" d="M38.921 66.816L43.878 60.088"/><path fill="#472b29" d="M38.922,67.166c-0.072,0-0.146-0.022-0.208-0.068c-0.155-0.115-0.188-0.333-0.074-0.489l4.957-6.728c0.116-0.155,0.336-0.188,0.49-0.074c0.155,0.115,0.188,0.333,0.074,0.489l-4.957,6.728C39.134,67.117,39.029,67.166,38.922,67.166z"/><path fill="#ee3e54" d="M40.904 64.362L42.635 69.251"/><path fill="#472b29" d="M42.634,69.5c-0.103,0-0.199-0.064-0.235-0.167l-1.73-4.889c-0.047-0.13,0.021-0.273,0.152-0.319c0.129-0.047,0.272,0.022,0.318,0.152l1.73,4.889c0.047,0.13-0.021,0.273-0.152,0.319C42.69,69.496,42.662,69.5,42.634,69.5z"/><g><path fill="#ee3e54" d="M42.47 61.999L45.393 70.256"/><path fill="#472b29" d="M45.393,70.506c-0.103,0-0.199-0.064-0.235-0.167l-2.923-8.256c-0.047-0.13,0.021-0.273,0.152-0.319c0.128-0.048,0.272,0.022,0.318,0.152l2.923,8.256c0.047,0.13-0.021,0.273-0.152,0.319C45.449,70.501,45.421,70.506,45.393,70.506z"/></g><g><path fill="#ee3e54" d="M44.799 60.73L47.264 67.696"/><path fill="#472b29" d="M47.264,67.946c-0.103,0-0.199-0.064-0.235-0.167l-2.466-6.966c-0.047-0.13,0.021-0.273,0.152-0.319c0.129-0.048,0.272,0.022,0.318,0.152l2.466,6.966c0.047,0.13-0.021,0.273-0.152,0.319C47.32,67.941,47.292,67.946,47.264,67.946z"/></g><g><path fill="#ee3e54" d="M43.017 70.257L43.15 70.634"/><path fill="#472b29" d="M43.15,70.884c-0.104,0-0.199-0.064-0.235-0.167l-0.133-0.376c-0.046-0.13,0.021-0.273,0.152-0.319c0.131-0.047,0.272,0.022,0.318,0.153l0.133,0.376c0.046,0.13-0.021,0.273-0.152,0.319C43.206,70.879,43.177,70.884,43.15,70.884z"/></g><g><path fill="#ee3e54" d="M68.043 54.409L77.148 66.766 68.02 66.89 65.198 75.571 56.17 63.319"/><path fill="#472b29" d="M65.198,76.271c-0.221,0-0.431-0.104-0.563-0.285l-9.027-12.252c-0.229-0.311-0.163-0.75,0.148-0.979c0.312-0.23,0.751-0.163,0.979,0.148l8.22,11.155l2.4-7.386c0.093-0.285,0.356-0.479,0.656-0.483l7.766-0.105l-8.297-11.261c-0.229-0.311-0.163-0.749,0.148-0.979c0.312-0.231,0.75-0.163,0.979,0.148l9.105,12.358c0.155,0.211,0.18,0.492,0.063,0.727c-0.117,0.235-0.355,0.385-0.617,0.388l-8.627,0.117l-2.667,8.205c-0.081,0.25-0.295,0.433-0.555,0.475C65.272,76.268,65.235,76.271,65.198,76.271z"/><path fill="#ee3e54" d="M68.02 66.816L63.185 60.254"/><path fill="#472b29" d="M68.02,67.166c-0.107,0-0.213-0.049-0.282-0.143l-4.835-6.562c-0.114-0.156-0.081-0.375,0.074-0.489c0.155-0.114,0.374-0.082,0.49,0.074l4.835,6.562c0.114,0.156,0.081,0.375-0.074,0.489C68.166,67.144,68.092,67.166,68.02,67.166z"/><path fill="#ee3e54" d="M66.037 64.362L64.307 69.251"/><path fill="#472b29" d="M64.307,69.5c-0.027,0-0.056-0.004-0.083-0.014c-0.131-0.046-0.198-0.189-0.152-0.319l1.729-4.889c0.046-0.13,0.188-0.199,0.318-0.152c0.131,0.046,0.198,0.189,0.152,0.319l-1.729,4.889C64.507,69.436,64.41,69.5,64.307,69.5z"/><g><path fill="#ee3e54" d="M64.471 61.999L61.548 70.256"/><path fill="#472b29" d="M61.548,70.506c-0.027,0-0.056-0.004-0.083-0.014c-0.131-0.046-0.199-0.189-0.152-0.319l2.923-8.256c0.046-0.13,0.188-0.2,0.318-0.152c0.131,0.046,0.199,0.189,0.152,0.319l-2.923,8.256C61.748,70.442,61.651,70.506,61.548,70.506z"/></g><g><path fill="#ee3e54" d="M62.143 60.73L59.677 67.696"/><path fill="#472b29" d="M59.676,67.946c-0.027,0-0.056-0.004-0.083-0.014c-0.131-0.046-0.199-0.189-0.152-0.319l2.466-6.966c0.045-0.13,0.188-0.199,0.318-0.152c0.131,0.046,0.199,0.189,0.152,0.319l-2.466,6.966C59.876,67.882,59.779,67.946,59.676,67.946z"/></g><g><path fill="#ee3e54" d="M63.924 70.257L63.791 70.634"/><path fill="#472b29" d="M63.792,70.884c-0.027,0-0.056-0.004-0.083-0.014c-0.131-0.046-0.198-0.189-0.152-0.319l0.133-0.376c0.046-0.13,0.188-0.2,0.318-0.153c0.131,0.046,0.198,0.189,0.152,0.319l-0.133,0.376C63.991,70.82,63.895,70.884,63.792,70.884z"/></g></g><g><path fill="#fbcd59" d="M53.578 31.714A15.772 15.772 0 1 0 53.578 63.257999999999996A15.772 15.772 0 1 0 53.578 31.714Z"/><path fill="#472b29" d="M53.578,63.958c-9.082,0-16.472-7.39-16.472-16.472s7.39-16.472,16.472-16.472c9.083,0,16.473,7.39,16.473,16.472S62.661,63.958,53.578,63.958z M53.578,32.414c-8.311,0-15.071,6.761-15.071,15.072s6.761,15.072,15.071,15.072S68.65,55.796,68.65,47.486S61.888,32.414,53.578,32.414z"/></g><g><path fill="#472b29" d="M66.21 52.26c-.028 0-.057-.005-.084-.015-.13-.046-.198-.189-.151-.32.51-1.423.768-2.917.768-4.44 0-7.258-5.905-13.164-13.164-13.164-.138 0-.25-.112-.25-.25s.112-.25.25-.25c7.534 0 13.664 6.129 13.664 13.664 0 1.581-.269 3.131-.797 4.609C66.409 52.197 66.312 52.26 66.21 52.26zM45.37 58.345c-.054 0-.107-.017-.153-.052-3.369-2.611-5.302-6.55-5.302-10.807 0-4.518 2.23-8.738 5.966-11.29.114-.078.27-.049.347.065.078.114.049.27-.065.348-3.599 2.458-5.747 6.524-5.747 10.876 0 4.102 1.862 7.896 5.108 10.412.109.084.129.242.044.351C45.518 58.312 45.444 58.345 45.37 58.345zM47.621 59.757c-.037 0-.075-.008-.111-.026-.352-.174-.697-.365-1.028-.567-.118-.072-.155-.226-.084-.343.073-.12.229-.155.344-.083.319.194.652.378.991.546.124.061.174.211.112.335C47.8 59.706 47.713 59.757 47.621 59.757zM53.578 61.149c-1.382 0-2.747-.206-4.058-.613-.132-.041-.205-.181-.164-.313.041-.131.181-.206.312-.165 1.262.392 2.577.59 3.909.59.138 0 .25.112.25.25S53.715 61.149 53.578 61.149z"/></g><g><path fill="#e0a825" d="M53.578 42.901L55.068 45.919 58.399 46.403 55.989 48.753 56.558 52.071 53.578 50.504 50.599 52.071 51.168 48.753 48.757 46.403 52.088 45.919z"/><path fill="#472b29" d="M50.598,52.421c-0.072,0-0.145-0.022-0.206-0.067c-0.107-0.079-0.161-0.211-0.139-0.342l0.538-3.136l-2.278-2.222c-0.096-0.093-0.13-0.232-0.089-0.359c0.041-0.126,0.15-0.219,0.282-0.238l3.149-0.458l1.408-2.854c0.117-0.239,0.51-0.239,0.627,0l1.409,2.854l3.149,0.458c0.132,0.019,0.241,0.111,0.282,0.238c0.041,0.127,0.007,0.266-0.089,0.359l-2.278,2.222l0.538,3.136c0.022,0.131-0.031,0.264-0.139,0.342c-0.109,0.079-0.25,0.088-0.369,0.027L53.578,50.9l-2.816,1.48C50.71,52.408,50.654,52.421,50.598,52.421z M53.578,50.154c0.056,0,0.112,0.014,0.163,0.04l2.353,1.237l-0.449-2.619c-0.02-0.113,0.018-0.229,0.101-0.31l1.902-1.855l-2.63-0.382c-0.113-0.017-0.212-0.088-0.263-0.191l-1.177-2.382l-1.176,2.382c-0.051,0.104-0.149,0.175-0.263,0.191l-2.63,0.382l1.902,1.855c0.083,0.08,0.12,0.196,0.101,0.31l-0.449,2.619l2.352-1.236C53.465,50.168,53.522,50.154,53.578,50.154z"/></g><g><path fill="#fdfcef" d="M77.317,61.945c1.883,0,3.517,0,3.54,0c2.11,0,3.821-1.674,3.821-3.739c0-1.802-1.302-3.305-3.035-3.66c0.02-0.158,0.034-0.317,0.034-0.48c0-2.139-1.772-3.873-3.957-3.873c-1.29,0-2.433,0.607-3.155,1.543c-0.185-2.381-2.358-4.218-4.9-3.913c-1.859,0.223-3.397,1.629-3.739,3.431c-0.11,0.578-0.098,1.139,0.011,1.665c-0.498-0.525-1.208-0.856-1.998-0.856c-1.446,0-2.627,1.102-2.72,2.494c-0.657-0.142-1.371-0.133-2.123,0.143c-1.438,0.528-2.462,1.853-2.522,3.356c-0.085,2.133,1.657,3.889,3.818,3.889c0.164,0,0.741,0,0.874,0h7.934 M70.839,61.945h0.36"/><path fill="#472b29" d="M80.857,62.445h-3.54c-0.276,0-0.5-0.224-0.5-0.5s0.224-0.5,0.5-0.5h3.54c1.831,0,3.32-1.453,3.32-3.239c0-1.524-1.108-2.857-2.636-3.17c-0.255-0.052-0.428-0.292-0.396-0.551c0.017-0.138,0.029-0.277,0.029-0.418c0-1.86-1.551-3.373-3.457-3.373c-1.092,0-2.098,0.491-2.76,1.348c-0.126,0.164-0.341,0.232-0.538,0.173c-0.198-0.059-0.34-0.234-0.355-0.44c-0.079-1.019-0.565-1.944-1.37-2.604c-0.828-0.68-1.886-0.985-2.972-0.852c-1.646,0.197-3.007,1.442-3.308,3.028c-0.094,0.496-0.091,0.99,0.009,1.471c0.046,0.219-0.06,0.441-0.258,0.544c-0.197,0.103-0.439,0.064-0.595-0.099c-0.428-0.451-1.008-0.7-1.635-0.7c-1.169,0-2.145,0.891-2.221,2.028c-0.01,0.145-0.082,0.278-0.198,0.366c-0.116,0.088-0.264,0.119-0.406,0.089c-0.64-0.139-1.243-0.098-1.845,0.124c-1.262,0.463-2.145,1.631-2.195,2.906c-0.035,0.875,0.282,1.708,0.895,2.345c0.635,0.661,1.495,1.024,2.423,1.024h8.808c0.276,0,0.5,0.224,0.5,0.5s-0.224,0.5-0.5,0.5h-8.808c-1.185,0-2.331-0.485-3.144-1.332c-0.803-0.835-1.219-1.928-1.174-3.078c0.068-1.675,1.213-3.204,2.85-3.805c0.61-0.225,1.24-0.306,1.881-0.245c0.345-1.396,1.629-2.424,3.135-2.424c0.493,0,0.977,0.113,1.414,0.323c0.009-0.241,0.036-0.483,0.082-0.725c0.381-2.01,2.097-3.586,4.171-3.835c1.365-0.161,2.685,0.218,3.726,1.072c0.748,0.613,1.278,1.41,1.546,2.302c0.791-0.648,1.786-1.007,2.843-1.007c2.458,0,4.457,1.962,4.457,4.373c0,0.034-0.001,0.068-0.002,0.102c1.765,0.555,3.004,2.188,3.004,4.038C85.177,60.543,83.239,62.445,80.857,62.445z M71.199,62.445H70.84c-0.276,0-0.5-0.224-0.5-0.5s0.224-0.5,0.5-0.5h0.359c0.276,0,0.5,0.224,0.5,0.5S71.475,62.445,71.199,62.445z"/><path fill="#472b29" d="M79.149,56.642c-0.018,0-0.036-0.002-0.055-0.006c-0.135-0.03-0.22-0.164-0.189-0.298c0.037-0.164,0.094-0.326,0.169-0.479c0.606-1.225,2.278-1.676,3.722-1.007c0.126,0.058,0.181,0.207,0.122,0.332c-0.058,0.125-0.209,0.18-0.331,0.122c-1.206-0.558-2.577-0.208-3.064,0.774c-0.058,0.118-0.101,0.241-0.129,0.367C79.367,56.563,79.264,56.642,79.149,56.642z"/><g><path fill="#472b29" d="M73.991,62.445h-1.107c-0.276,0-0.5-0.224-0.5-0.5s0.224-0.5,0.5-0.5h1.107c0.276,0,0.5,0.224,0.5,0.5S74.267,62.445,73.991,62.445z"/></g></g><g><path fill="#f1bc19" d="M76.591 33.878L77.481 35.68 79.47 35.969 78.031 37.372 78.371 39.353 76.591 38.418 74.812 39.353 75.152 37.372 73.713 35.969 75.702 35.68z"/><path fill="#472b29" d="M78.371,39.703c-0.056,0-0.111-0.013-0.163-0.04l-1.616-0.85l-1.616,0.85c-0.118,0.062-0.26,0.052-0.369-0.027c-0.107-0.079-0.161-0.211-0.139-0.342l0.309-1.8l-1.308-1.274c-0.096-0.093-0.13-0.232-0.089-0.358c0.041-0.127,0.15-0.219,0.282-0.238l1.808-0.263l0.809-1.637c0.117-0.239,0.51-0.239,0.627,0l0.809,1.637l1.808,0.263c0.132,0.019,0.241,0.111,0.282,0.238c0.041,0.126,0.007,0.266-0.089,0.358l-1.308,1.274l0.309,1.8c0.022,0.131-0.031,0.264-0.139,0.342C78.515,39.681,78.443,39.703,78.371,39.703z M76.591,38.068c0.056,0,0.112,0.014,0.163,0.04l1.151,0.605l-0.22-1.282c-0.02-0.113,0.018-0.229,0.101-0.31l0.932-0.908l-1.288-0.187c-0.113-0.017-0.212-0.088-0.263-0.191l-0.576-1.167l-0.576,1.167c-0.051,0.104-0.149,0.175-0.263,0.191l-1.288,0.187l0.932,0.908c0.083,0.08,0.12,0.196,0.101,0.31l-0.22,1.282l1.151-0.605C76.479,38.081,76.536,38.068,76.591,38.068z"/></g><g><path fill="#f1bc19" d="M49.121 13.995L50.48 16.749 53.519 17.191 51.32 19.334 51.839 22.361 49.121 20.932 46.403 22.361 46.922 19.334 44.723 17.191 47.762 16.749z"/><path fill="#472b29" d="M51.84,22.711c-0.056,0-0.111-0.013-0.163-0.041l-2.556-1.343l-2.555,1.343c-0.119,0.062-0.261,0.053-0.369-0.026c-0.107-0.078-0.161-0.211-0.139-0.342l0.487-2.846l-2.066-2.015c-0.096-0.093-0.13-0.232-0.089-0.359c0.041-0.126,0.15-0.219,0.282-0.238l2.856-0.415l1.278-2.589c0.117-0.239,0.51-0.239,0.627,0l1.278,2.589l2.857,0.415c0.132,0.019,0.241,0.111,0.282,0.238c0.041,0.127,0.007,0.266-0.089,0.359l-2.067,2.015l0.488,2.846c0.022,0.131-0.031,0.264-0.139,0.342C51.984,22.689,51.912,22.711,51.84,22.711z M45.475,17.435l1.69,1.648c0.083,0.08,0.12,0.196,0.101,0.31l-0.398,2.328l2.09-1.099c0.102-0.054,0.225-0.054,0.326,0l2.091,1.099l-0.399-2.328c-0.02-0.113,0.018-0.229,0.101-0.31l1.691-1.648l-2.338-0.34c-0.113-0.017-0.212-0.088-0.263-0.191l-1.046-2.118l-1.046,2.118c-0.051,0.104-0.149,0.175-0.263,0.191L45.475,17.435z"/></g><g><path fill="#f1bc19" d="M21.287 62.976L22.386 65.203 24.845 65.561 23.066 67.295 23.486 69.744 21.287 68.587 19.088 69.744 19.508 67.295 17.729 65.561 20.187 65.203z"/><path fill="#472b29" d="M23.486,70.094c-0.056,0-0.111-0.013-0.163-0.041l-2.036-1.07l-2.036,1.07c-0.118,0.062-0.261,0.052-0.369-0.026c-0.107-0.078-0.161-0.211-0.139-0.342l0.389-2.268l-1.647-1.605c-0.096-0.093-0.13-0.232-0.089-0.358c0.041-0.127,0.15-0.219,0.282-0.238l2.277-0.331l1.019-2.063c0.117-0.239,0.51-0.239,0.627,0l1.019,2.063l2.277,0.331c0.132,0.019,0.241,0.111,0.282,0.238c0.041,0.126,0.007,0.266-0.089,0.358l-1.647,1.605l0.389,2.268c0.022,0.131-0.031,0.264-0.139,0.342C23.631,70.071,23.558,70.094,23.486,70.094z M21.287,68.237c0.056,0,0.112,0.014,0.163,0.041l1.571,0.826l-0.3-1.75c-0.02-0.113,0.018-0.229,0.101-0.31l1.271-1.239l-1.758-0.255c-0.113-0.017-0.212-0.088-0.263-0.191l-0.786-1.592l-0.786,1.592c-0.051,0.104-0.149,0.175-0.263,0.191l-1.758,0.255l1.271,1.239c0.083,0.08,0.12,0.196,0.101,0.31l-0.3,1.75l1.571-0.826C21.174,68.251,21.231,68.237,21.287,68.237z"/></g></svg>