<svg xmlns="http://www.w3.org/2000/svg"  viewBox="0 0 100 100" width="100px" height="100px"><path fill="#c7ede6" d="M87.215,56.71C88.35,54.555,89,52.105,89,49.5c0-6.621-4.159-12.257-10.001-14.478 C78.999,35.015,79,35.008,79,35c0-11.598-9.402-21-21-21c-9.784,0-17.981,6.701-20.313,15.757C36.211,29.272,34.638,29,33,29 c-7.692,0-14.023,5.793-14.89,13.252C12.906,43.353,9,47.969,9,53.5C9,59.851,14.149,65,20.5,65c0.177,0,0.352-0.012,0.526-0.022 C21.022,65.153,21,65.324,21,65.5C21,76.822,30.178,86,41.5,86c6.437,0,12.175-2.972,15.934-7.614C59.612,80.611,62.64,82,66,82 c4.65,0,8.674-2.65,10.666-6.518C77.718,75.817,78.837,76,80,76c6.075,0,11-4.925,11-11C91,61.689,89.53,58.727,87.215,56.71z"/><path fill="#fdfcef" d="M73.5,59.5V60h3v-0.5c0,0,4.242,0,5.5,0c2.485,0,4.5-2.015,4.5-4.5 c0-2.333-1.782-4.229-4.055-4.455C82.467,50.364,82.5,50.187,82.5,50c0-2.485-2.015-4.5-4.5-4.5c-1.438,0-2.703,0.686-3.527,1.736 C74.333,44.6,72.171,42.5,69.5,42.5c-2.761,0-5,2.239-5,5c0,0.446,0.077,0.87,0.187,1.282C64.045,48.005,63.086,47.5,62,47.5 c-1.781,0-3.234,1.335-3.455,3.055C58.364,50.533,58.187,50.5,58,50.5c-2.485,0-4.5,2.015-4.5,4.5s2.015,4.5,4.5,4.5s9.5,0,9.5,0 H73.5z"/><path fill="#472b29" d="M69.5,42c-3.033,0-5.5,2.467-5.5,5.5c0,0.016,0,0.031,0,0.047C63.398,47.192,62.71,47,62,47 c-1.831,0-3.411,1.261-3.858,3.005C58.095,50.002,58.048,50,58,50c-2.757,0-5,2.243-5,5s2.243,5,5,5h15.5 c0.276,0,0.5-0.224,0.5-0.5S73.776,59,73.5,59H58c-2.206,0-4-1.794-4-4s1.794-4,4-4c0.117,0,0.23,0.017,0.343,0.032l0.141,0.019 c0.021,0.003,0.041,0.004,0.062,0.004c0.246,0,0.462-0.185,0.495-0.437C59.232,49.125,60.504,48,62,48 c0.885,0,1.723,0.401,2.301,1.1c0.098,0.118,0.241,0.182,0.386,0.182c0.078,0,0.156-0.018,0.228-0.056 c0.209-0.107,0.314-0.346,0.254-0.573C65.054,48.218,65,47.852,65,47.5c0-2.481,2.019-4.5,4.5-4.5 c2.381,0,4.347,1.872,4.474,4.263c0.011,0.208,0.15,0.387,0.349,0.45c0.05,0.016,0.101,0.024,0.152,0.024 c0.15,0,0.296-0.069,0.392-0.192C75.638,46.563,76.779,46,78,46c2.206,0,4,1.794,4,4c0,0.117-0.017,0.23-0.032,0.343l-0.019,0.141 c-0.016,0.134,0.022,0.268,0.106,0.373c0.084,0.105,0.207,0.172,0.34,0.185C84.451,51.247,86,52.949,86,55c0,2.206-1.794,4-4,4 h-5.5c-0.276,0-0.5,0.224-0.5,0.5s0.224,0.5,0.5,0.5H82c2.757,0,5-2.243,5-5c0-2.397-1.689-4.413-4.003-4.877 C82.999,50.082,83,50.041,83,50c0-2.757-2.243-5-5-5c-1.176,0-2.293,0.416-3.183,1.164C74.219,43.76,72.055,42,69.5,42L69.5,42z"/><path fill="#472b29" d="M68 49c-1.403 0-2.609.999-2.913 2.341C64.72 51.119 64.301 51 63.875 51c-1.202 0-2.198.897-2.353 2.068C61.319 53.022 61.126 53 60.937 53c-1.529 0-2.811 1.2-2.918 2.732C58.01 55.87 58.114 55.99 58.251 56c.006 0 .012 0 .018 0 .13 0 .24-.101.249-.232.089-1.271 1.151-2.268 2.419-2.268.229 0 .47.042.738.127.022.007.045.01.067.01.055 0 .11-.02.156-.054C61.962 53.537 62 53.455 62 53.375c0-1.034.841-1.875 1.875-1.875.447 0 .885.168 1.231.473.047.041.106.063.165.063.032 0 .063-.006.093-.019.088-.035.148-.117.155-.212C65.623 50.512 66.712 49.5 68 49.5c.208 0 .425.034.682.107.023.007.047.01.07.01.109 0 .207-.073.239-.182.038-.133-.039-.271-.172-.309C68.517 49.04 68.256 49 68 49L68 49zM81.883 50.5c-1.326 0-2.508.897-2.874 2.182-.038.133.039.271.172.309C79.205 52.997 79.228 53 79.25 53c.109 0 .209-.072.24-.182C79.795 51.748 80.779 51 81.883 51c.117 0 .23.014.342.029.012.002.023.003.035.003.121 0 .229-.092.246-.217.019-.137-.077-.263-.214-.281C82.158 50.516 82.022 50.5 81.883 50.5L81.883 50.5z"/><path fill="#fff" d="M22.5 62h-10c-.276 0-.5-.224-.5-.5s.224-.5.5-.5h10c.276 0 .5.224.5.5S22.777 62 22.5 62zM25.5 62h-1c-.276 0-.5-.224-.5-.5s.224-.5.5-.5h1c.276 0 .5.224.5.5S25.777 62 25.5 62zM30.491 64H21.5c-.276 0-.5-.224-.5-.5s.224-.5.5-.5h8.991c.276 0 .5.224.5.5S30.767 64 30.491 64zM19.5 64h-1c-.276 0-.5-.224-.5-.5s.224-.5.5-.5h1c.276 0 .5.224.5.5S19.777 64 19.5 64zM16.5 64h-2c-.276 0-.5-.224-.5-.5s.224-.5.5-.5h2c.276 0 .5.224.5.5S16.777 64 16.5 64zM22.5 66h-2c-.276 0-.5-.224-.5-.5s.224-.5.5-.5h2c.276 0 .5.224.5.5S22.776 66 22.5 66zM25.5 57c-.177 0-.823 0-1 0-.276 0-.5.224-.5.5 0 .276.224.5.5.5.177 0 .823 0 1 0 .276 0 .5-.224.5-.5C26 57.224 25.776 57 25.5 57zM25.5 59c-.177 0-4.823 0-5 0-.276 0-.5.224-.5.5 0 .276.224.5.5.5.177 0 4.823 0 5 0 .276 0 .5-.224.5-.5C26 59.224 25.776 59 25.5 59zM30.5 61c-.177 0-2.823 0-3 0-.276 0-.5.224-.5.5 0 .276.224.5.5.5.177 0 2.823 0 3 0 .276 0 .5-.224.5-.5C31 61.224 30.776 61 30.5 61z"/><g><path fill="#fff" d="M69.5 21h-10c-.276 0-.5-.224-.5-.5s.224-.5.5-.5h10c.276 0 .5.224.5.5S69.776 21 69.5 21zM73.5 21h-2c-.276 0-.5-.224-.5-.5s.224-.5.5-.5h2c.276 0 .5.224.5.5S73.776 21 73.5 21zM78.5 23h-10c-.276 0-.5-.224-.5-.5s.224-.5.5-.5h10c.276 0 .5.224.5.5S78.777 23 78.5 23zM66.5 23h-1c-.276 0-.5-.224-.5-.5s.224-.5.5-.5h1c.276 0 .5.224.5.5S66.776 23 66.5 23zM63.47 23H61.5c-.276 0-.5-.224-.5-.5s.224-.5.5-.5h1.97c.276 0 .5.224.5.5S63.746 23 63.47 23zM72.5 19h-5c-.276 0-.5-.224-.5-.5s.224-.5.5-.5h5c.276 0 .5.224.5.5S72.777 19 72.5 19zM69.5 25h-2c-.276 0-.5-.224-.5-.5s.224-.5.5-.5h2c.276 0 .5.224.5.5S69.776 25 69.5 25z"/></g><g><path fill="#39c2d8" d="M43.41 77.057L39.788 71.559 33.175 72.871 41.258 53.108 51.492 57.294z"/><path fill="#472b29" d="M43.555,78.55l-4.093-6.212l-7.428,1.473l8.84-21.615l11.53,4.716L43.555,78.55z M40.114,70.781 l3.15,4.782l7.315-17.887l-8.938-3.655l-7.325,17.91L40.114,70.781z"/><path fill="#39c2d8" d="M60.59 77.057L64.212 71.559 70.825 72.871 62.742 53.108 52.508 57.294z"/><path fill="#472b29" d="M60.444,78.55l-8.85-21.639l11.53-4.716l8.84,21.615l-7.428-1.473L60.444,78.55z M53.421,57.677 l7.314,17.887l3.151-4.782l5.797,1.15l-7.324-17.91L53.421,57.677z"/><path fill="#f69272" d="M55.417,63.248c-0.296,0-0.581-0.065-0.848-0.194l-1.109-0.538 c-0.453-0.219-0.958-0.335-1.46-0.335s-1.006,0.116-1.458,0.335l-1.111,0.538c-0.267,0.129-0.552,0.194-0.847,0.194 c-0.576,0-1.12-0.252-1.491-0.691l-0.796-0.942c-0.637-0.756-1.569-1.188-2.556-1.188c0,0-1.344,0.041-1.345,0.041 c-0.922,0-1.691-0.578-1.931-1.406l-0.344-1.185c-0.287-0.988-0.999-1.779-1.952-2.168l-1.143-0.466 c-0.825-0.336-1.316-1.188-1.195-2.069l0.168-1.223c0.14-1.021-0.189-2.032-0.902-2.774l-0.854-0.891 c-0.617-0.643-0.72-1.62-0.25-2.377l0.651-1.049c0.543-0.875,0.654-1.933,0.305-2.901l-0.418-1.16 c-0.302-0.838,0.001-1.773,0.738-2.273l1.021-0.693c0.852-0.579,1.383-1.5,1.458-2.527l0.09-1.23 c0.064-0.888,0.722-1.618,1.599-1.775l1.214-0.218c1.014-0.184,1.875-0.809,2.36-1.716l0.583-1.088 c0.34-0.634,0.999-1.028,1.718-1.028c0.156,0,0.313,0.02,0.466,0.057l1.197,0.295c0.262,0.064,0.531,0.097,0.8,0.097 c0.74,0,1.469-0.249,2.054-0.703l0.975-0.757c0.345-0.268,0.758-0.409,1.195-0.409c0.437,0,0.85,0.142,1.194,0.409l0.975,0.757 c0.585,0.454,1.314,0.703,2.055,0.703c0.27,0,0.538-0.032,0.8-0.097l1.198-0.295c0.153-0.037,0.31-0.057,0.466-0.057 c0.72,0,1.378,0.395,1.718,1.028l0.582,1.088c0.486,0.908,1.347,1.533,2.36,1.715l1.216,0.219 c0.876,0.157,1.533,0.888,1.599,1.776l0.09,1.229c0.074,1.027,0.606,1.948,1.458,2.527l1.021,0.693 c0.738,0.5,1.042,1.436,0.74,2.273l-0.419,1.16c-0.35,0.969-0.238,2.026,0.305,2.901l0.65,1.049 c0.47,0.757,0.367,1.733-0.249,2.377l-0.854,0.891c-0.713,0.743-1.042,1.754-0.901,2.774l0.167,1.222 c0.121,0.883-0.37,1.734-1.195,2.07l-1.143,0.466c-0.953,0.389-1.664,1.179-1.951,2.168l-0.344,1.185 c-0.24,0.828-1.011,1.407-1.873,1.407l-1.402-0.042c-0.988,0-1.92,0.433-2.558,1.188l-0.796,0.941 C56.536,62.996,55.993,63.248,55.417,63.248z"/><path fill="#472b29" d="M52,27.527c0.28,0,0.545,0.091,0.766,0.263l0.974,0.756c0.707,0.548,1.589,0.851,2.483,0.851 c0.325,0,0.651-0.04,0.967-0.117l1.198-0.295c0.098-0.024,0.199-0.036,0.299-0.036c0.461,0,0.883,0.252,1.101,0.659l0.583,1.088 c0.588,1.097,1.628,1.853,2.853,2.073l1.215,0.218c0.562,0.101,0.983,0.569,1.025,1.139l0.09,1.23 c0.091,1.242,0.733,2.355,1.764,3.055l1.021,0.693c0.472,0.321,0.667,0.92,0.473,1.457l-0.418,1.161 c-0.422,1.171-0.288,2.45,0.369,3.508l0.65,1.048c0.301,0.485,0.235,1.112-0.16,1.524l-0.854,0.89 c-0.862,0.898-1.259,2.121-1.09,3.354l0.168,1.223c0.078,0.565-0.237,1.111-0.766,1.327l-1.142,0.466 c-1.153,0.47-2.013,1.425-2.36,2.621l-0.344,1.185c-0.154,0.53-0.646,0.9-1.238,0.9c0,0-0.001,0-0.001,0l-1.234-0.04 l-0.127-0.002c-1.195,0-2.323,0.524-3.094,1.437l-0.796,0.942c-0.238,0.282-0.586,0.443-0.955,0.443 c-0.189,0-0.372-0.042-0.543-0.125l-1.11-0.537c-0.547-0.265-1.156-0.404-1.763-0.404c-0.607,0-1.217,0.14-1.763,0.404 l-1.111,0.537c-0.171,0.083-0.354,0.125-0.543,0.125c-0.369,0-0.717-0.162-0.956-0.443l-0.796-0.942 c-0.771-0.913-1.899-1.437-3.095-1.437l-0.128,0.002l-1.272,0.041c-0.552,0-1.046-0.371-1.2-0.901l-0.344-1.185 c-0.347-1.196-1.207-2.151-2.36-2.621l-1.142-0.466c-0.529-0.216-0.844-0.761-0.766-1.327l0.168-1.223 c0.169-1.233-0.228-2.456-1.09-3.354l-0.854-0.89c-0.395-0.412-0.461-1.039-0.16-1.524l0.651-1.048 c0.656-1.058,0.791-2.336,0.369-3.508l-0.418-1.161c-0.194-0.537,0.001-1.136,0.473-1.457l1.021-0.693 c1.03-0.7,1.672-1.813,1.763-3.055l0.09-1.23c0.042-0.569,0.463-1.038,1.025-1.139l1.214-0.218 c1.225-0.22,2.265-0.976,2.854-2.073l0.582-1.088c0.218-0.407,0.64-0.659,1.101-0.659c0.1,0,0.201,0.012,0.299,0.036l1.198,0.295 c0.316,0.078,0.641,0.117,0.967,0.117c0.895,0,1.777-0.302,2.483-0.851l0.975-0.756C51.455,27.618,51.72,27.527,52,27.527 M52,26.127c-0.573,0-1.146,0.186-1.624,0.557l-0.975,0.756c-0.469,0.364-1.042,0.557-1.625,0.557 c-0.211,0-0.423-0.025-0.633-0.077l-1.198-0.295c-0.211-0.052-0.423-0.077-0.633-0.077c-0.959,0-1.866,0.523-2.335,1.398 l-0.583,1.088c-0.382,0.713-1.07,1.213-1.867,1.356l-1.214,0.218c-1.191,0.214-2.086,1.208-2.174,2.415l-0.09,1.23 c-0.059,0.807-0.484,1.543-1.154,1.999l-1.021,0.693c-1.001,0.68-1.414,1.952-1.004,3.09l0.418,1.161 c0.275,0.762,0.186,1.607-0.241,2.295l-0.65,1.048c-0.638,1.028-0.498,2.358,0.34,3.231l0.854,0.89 c0.561,0.584,0.823,1.393,0.713,2.194l-0.168,1.223c-0.165,1.199,0.504,2.356,1.624,2.813l1.142,0.466 c0.75,0.306,1.318,0.938,1.544,1.715l0.344,1.185c0.329,1.135,1.369,1.911,2.544,1.911c0.028,0,0.056,0,0.084-0.001l1.233-0.04 c0.028-0.001,0.056-0.001,0.083-0.001c0.779,0,1.52,0.343,2.025,0.94l0.796,0.942c0.516,0.611,1.263,0.94,2.025,0.94 c0.39,0,0.784-0.086,1.153-0.265l1.111-0.537c0.364-0.176,0.759-0.264,1.154-0.264s0.789,0.088,1.154,0.264l1.111,0.537 c0.369,0.179,0.763,0.265,1.153,0.265c0.762,0,1.509-0.329,2.025-0.94l0.796-0.942c0.504-0.597,1.246-0.94,2.025-0.94 c0.028,0,0.056,0,0.083,0.001l1.233,0.04c0.028,0.001,0.056,0.001,0.084,0.001c1.175,0,2.215-0.776,2.544-1.911l0.344-1.185 c0.226-0.777,0.794-1.409,1.544-1.715l1.142-0.466c1.12-0.457,1.789-1.615,1.624-2.813l-0.168-1.223 c-0.11-0.802,0.153-1.61,0.713-2.194l0.854-0.89c0.838-0.873,0.978-2.203,0.34-3.231l-0.65-1.048 c-0.427-0.688-0.516-1.533-0.241-2.295l0.418-1.161c0.41-1.138-0.003-2.41-1.004-3.09l-1.021-0.693 c-0.67-0.455-1.095-1.191-1.154-1.999l-0.09-1.23c-0.088-1.207-0.983-2.201-2.174-2.415l-1.214-0.218 c-0.797-0.143-1.485-0.643-1.867-1.356l-0.583-1.088c-0.469-0.875-1.375-1.398-2.335-1.398c-0.21,0-0.422,0.025-0.633,0.077 l-1.198,0.295c-0.209,0.051-0.421,0.077-0.633,0.077c-0.582,0-1.155-0.192-1.625-0.557l-0.975-0.756 C53.146,26.313,52.573,26.127,52,26.127L52,26.127z"/><path fill="#472b29" d="M65.491 41.692c-.215 0-.412-.139-.479-.354-.06-.196-.125-.392-.194-.584-.269-.753-.608-1.484-1.009-2.177-.139-.238-.057-.545.183-.683.235-.141.544-.058.683.183.431.744.796 1.53 1.085 2.338.075.207.145.418.21.632.08.264-.068.543-.333.624C65.589 41.686 65.539 41.692 65.491 41.692zM38.18 42.678c-.036 0-.072-.004-.108-.012-.27-.06-.44-.326-.38-.597C39.159 35.436 45.176 30.62 52 30.62c4.192 0 8.192 1.797 10.975 4.93.21.236.414.48.608.732.169.218.129.532-.09.701-.218.168-.532.129-.701-.09-.181-.232-.369-.459-.565-.68C59.635 33.295 55.907 31.62 52 31.62c-6.358 0-11.965 4.485-13.332 10.666C38.616 42.519 38.41 42.678 38.18 42.678zM52 59.838c-7.144 0-13.214-5.085-14.435-12.091-.047-.272.135-.531.407-.578.277-.058.531.135.579.406 1.137 6.526 6.793 11.263 13.45 11.263 7.528 0 13.652-6.104 13.652-13.608 0-.686-.052-1.372-.152-2.041-.042-.273.146-.528.419-.569.272-.042.529.146.569.419.109.719.164 1.456.164 2.191C66.652 53.284 60.079 59.838 52 59.838zM66.737 69.782c-.099 0-.192-.059-.231-.156l-.9-2.231c-.052-.128.01-.273.138-.325.13-.055.273.009.325.138l.9 2.231c.052.128-.01.273-.138.325C66.8 69.776 66.769 69.782 66.737 69.782z"/><g><path fill="#472b29" d="M65.18,65.923c-0.099,0-0.192-0.059-0.231-0.156l-2.075-5.14c-0.052-0.128,0.01-0.273,0.138-0.325 c0.128-0.054,0.273,0.009,0.325,0.138l2.075,5.14c0.052,0.128-0.01,0.273-0.138,0.325C65.242,65.917,65.211,65.923,65.18,65.923z"/></g><g><path fill="#472b29" d="M42.713,72.226c-0.033,0-0.066-0.007-0.098-0.02c-0.127-0.055-0.187-0.201-0.132-0.328l0.941-2.215 c0.054-0.128,0.202-0.182,0.328-0.133c0.127,0.055,0.187,0.201,0.132,0.328l-0.941,2.215 C42.902,72.169,42.81,72.226,42.713,72.226z"/></g><g><path fill="#472b29" d="M44.341,68.395c-0.033,0-0.066-0.007-0.098-0.02c-0.127-0.055-0.187-0.201-0.132-0.328l0.465-1.094 c0.054-0.128,0.202-0.182,0.328-0.133c0.127,0.055,0.187,0.201,0.132,0.328l-0.465,1.094 C44.53,68.338,44.438,68.395,44.341,68.395z"/></g><g><path fill="#472b29" d="M45.325,66.079c-0.033,0-0.066-0.007-0.098-0.02c-0.127-0.055-0.187-0.201-0.132-0.328l1.183-2.785 c0.054-0.129,0.202-0.184,0.328-0.133c0.127,0.055,0.187,0.201,0.132,0.328l-1.183,2.785 C45.514,66.022,45.422,66.079,45.325,66.079z"/></g></g><g><path fill="#fdfcef" d="M29.5,44.5c0,0-1.567,0-3.5,0s-3.5-1.567-3.5-3.5c0-1.781,1.335-3.234,3.055-3.455 C25.527,37.366,25.5,37.187,25.5,37c0-1.933,1.567-3.5,3.5-3.5c1.032,0,1.95,0.455,2.59,1.165c0.384-1.808,1.987-3.165,3.91-3.165 c2.209,0,4,1.791,4,4c0,0.191-0.03,0.374-0.056,0.558C39.872,35.714,40.408,35.5,41,35.5c1.228,0,2.245,0.887,2.455,2.055 C43.634,37.527,43.813,37.5,44,37.5c1.933,0,3.5,1.567,3.5,3.5s-1.567,3.5-3.5,3.5s-7.5,0-7.5,0V45h-7V44.5z"/><path fill="#472b29" d="M27.75 40c.138 0 .25-.112.25-.25 0-1.223-.995-2.218-2.218-2.218-.034.009-.737-.001-1.244.136-.133.036-.212.173-.176.306.036.134.173.213.306.176.444-.12 1.1-.12 1.113-.118.948 0 1.719.771 1.719 1.718C27.5 39.888 27.612 40 27.75 40zM34.5 44A.5.5 0 1 0 34.5 45 .5.5 0 1 0 34.5 44z"/><path fill="#472b29" d="M26,45h3.5c0.276,0,0.5-0.224,0.5-0.5S29.776,44,29.5,44H26c-1.654,0-3-1.346-3-3 c0-1.496,1.125-2.768,2.618-2.959c0.134-0.018,0.255-0.088,0.336-0.196s0.115-0.244,0.094-0.377C26.025,37.314,26,37.16,26,37 c0-1.654,1.346-3,3-3c0.85,0,1.638,0.355,2.219,1c0.125,0.139,0.321,0.198,0.5,0.148c0.182-0.049,0.321-0.195,0.36-0.379 C32.42,33.165,33.859,32,35.5,32c1.93,0,3.5,1.57,3.5,3.5c0,0.143-0.021,0.28-0.041,0.418c-0.029,0.203,0.063,0.438,0.242,0.54 c0.179,0.102,0.396,0.118,0.556-0.01C40.122,36.155,40.551,36,41,36c0.966,0,1.792,0.691,1.963,1.644 c0.048,0.267,0.296,0.446,0.569,0.405C43.686,38.025,43.84,38,44,38c1.654,0,3,1.346,3,3s-1.346,3-3,3h-7.5 c-0.276,0-0.5,0.224-0.5,0.5s0.224,0.5,0.5,0.5H44c2.206,0,4-1.794,4-4s-1.794-4-4-4c-0.059,0-0.116,0.002-0.174,0.006 C43.412,35.82,42.289,35,41,35c-0.349,0-0.689,0.061-1.011,0.18C39.824,32.847,37.874,31,35.5,31 c-1.831,0-3.466,1.127-4.153,2.774C30.667,33.276,29.845,33,29,33c-2.206,0-4,1.794-4,4c0,0.048,0.001,0.095,0.004,0.142 C23.261,37.59,22,39.169,22,41C22,43.206,23.794,45,26,45z"/><path fill="#472b29" d="M31.5,44c0.159,0,0.841,0,1,0c0.276,0,0.5,0.224,0.5,0.5c0,0.276-0.224,0.5-0.5,0.5 c-0.159,0-0.841,0-1,0c-0.276,0-0.5-0.224-0.5-0.5C31,44.224,31.224,44,31.5,44z"/></g></svg>