<svg xmlns="http://www.w3.org/2000/svg"  viewBox="0 0 100 100" width="100px" height="100px"><path fill="#c8ede6" d="M87.337,56.329c0.3-0.616,0.566-1.264,0.796-1.943c2.633-7.77-1.349-17.078-9.733-19.325c-0.906-11.384-8.906-19.193-17.941-20.526c-10.341-1.525-19.814,5.044-22.966,15.485c-3.799-1.346-7.501-1.182-10.99,0.857c-1.583,0.732-3.031,1.812-4.33,3.233c-1.907,2.086-3.147,4.719-3.652,7.495c-0.748,0.118-1.483,0.236-2.176,0.484c-4.04,1.449-6.589,4.431-7.288,8.923C8.622,53.81,9.5,56.6,9.99,57.728c1.935,4.455,6.422,6.98,10.981,6.312c0.227-0.033,0.557,0.069,0.752,0.233c0.241,7.12,3.698,13.417,8.884,17.014c8.321,5.772,19.027,3.994,25.781-3.921c2.894,2.96,6.338,4.398,10.384,3.876c4.023-0.519,7.147-2.739,9.426-6.349c1.053,0.283,2.051,0.691,3.083,0.804c4.042,0.442,7.297-1.184,9.732-4.8c0.083-0.124,0.203-0.219,0.306-0.328c0.348-0.798,0.696-1.596,1.044-2.394c0.155-1.211,0.429-2.423,0.443-3.632C90.845,61.286,89.514,58.319,87.337,56.329z"/><path fill="#fdfcef" d="M39.44,51.701c0,0,11.691,0,11.762,0c2.7,0,4.888-2.189,4.888-4.889c0-2.355-1.666-4.321-3.884-4.784c0.026-0.206,0.043-0.415,0.043-0.628c0-2.796-2.267-5.063-5.063-5.063c-1.651,0-3.113,0.794-4.037,2.017c-0.236-3.113-3.017-5.514-6.27-5.116c-2.379,0.291-4.346,2.13-4.784,4.486c-0.14,0.756-0.126,1.489,0.014,2.177c-0.638-0.687-1.546-1.119-2.557-1.119c-1.85,0-3.361,1.441-3.48,3.261c-0.84-0.186-1.754-0.174-2.717,0.188c-1.84,0.691-3.15,2.423-3.227,4.387c-0.109,2.789,2.12,5.085,4.885,5.085c0.21,0,0.948,0,1.118,0h10.151"/><path fill="#472b29" d="M51.203,52.201H39.44c-0.276,0-0.5-0.224-0.5-0.5s0.224-0.5,0.5-0.5h11.763c2.419,0,4.388-1.969,4.388-4.389c0-2.066-1.466-3.873-3.486-4.295c-0.255-0.053-0.427-0.294-0.394-0.553c0.023-0.186,0.039-0.373,0.039-0.564c0-2.516-2.047-4.563-4.562-4.563c-1.439,0-2.766,0.663-3.638,1.818c-0.126,0.166-0.344,0.236-0.54,0.179c-0.2-0.059-0.342-0.235-0.358-0.442c-0.104-1.377-0.778-2.671-1.85-3.549c-1.082-0.887-2.453-1.281-3.86-1.109c-2.166,0.265-3.956,1.943-4.354,4.081c-0.123,0.67-0.119,1.338,0.014,1.986c0.045,0.22-0.062,0.442-0.262,0.545c-0.197,0.102-0.442,0.06-0.595-0.104c-0.574-0.619-1.353-0.959-2.19-0.959c-1.569,0-2.879,1.227-2.981,2.794c-0.01,0.146-0.082,0.28-0.199,0.367c-0.116,0.087-0.267,0.118-0.408,0.088c-0.839-0.186-1.637-0.131-2.433,0.167c-1.669,0.626-2.836,2.209-2.902,3.938c-0.048,1.207,0.386,2.35,1.221,3.217c0.836,0.869,1.959,1.348,3.164,1.348h11.269c0.276,0,0.5,0.224,0.5,0.5s-0.224,0.5-0.5,0.5H25.015c-1.479,0-2.859-0.587-3.885-1.654c-1.025-1.066-1.558-2.469-1.5-3.95c0.083-2.126,1.51-4.069,3.551-4.835c0.801-0.3,1.627-0.399,2.468-0.299c0.377-1.822,1.997-3.182,3.905-3.182c0.685,0,1.354,0.179,1.943,0.509c0-0.384,0.035-0.771,0.107-1.158c0.476-2.562,2.62-4.574,5.215-4.891c1.686-0.208,3.32,0.266,4.615,1.328c1.004,0.823,1.716,1.951,2.038,3.193c1.012-0.916,2.319-1.425,3.714-1.425c3.067,0,5.562,2.496,5.562,5.563c0,0.083-0.002,0.166-0.007,0.249c2.255,0.673,3.848,2.777,3.848,5.164C56.59,49.783,54.173,52.201,51.203,52.201z"/><path fill="#fdfcef" d="M36.607,40.932c-1.808-0.119-3.365,1.13-3.476,2.789c-0.014,0.206-0.005,0.409,0.025,0.606c-0.349-0.394-0.865-0.661-1.458-0.7c-1.085-0.071-2.022,0.645-2.158,1.62c-0.197-0.054-0.403-0.09-0.616-0.104c-1.582-0.104-2.944,0.989-3.042,2.441"/><path fill="#472b29" d="M25.882,47.833c-0.006,0-0.011,0-0.017,0c-0.138-0.009-0.242-0.128-0.232-0.266c0.106-1.587,1.59-2.789,3.308-2.673c0.135,0.009,0.271,0.026,0.408,0.053c0.274-0.968,1.254-1.639,2.366-1.568c0.425,0.028,0.823,0.161,1.163,0.383c0.001-0.019,0.002-0.038,0.004-0.057c0.119-1.793,1.802-3.151,3.741-3.021c0.138,0.009,0.242,0.128,0.232,0.266c-0.008,0.137-0.101,0.246-0.266,0.233c-1.648-0.109-3.108,1.037-3.21,2.557c-0.013,0.182-0.005,0.368,0.023,0.551c0.017,0.11-0.04,0.217-0.141,0.264c-0.1,0.047-0.22,0.023-0.293-0.06c-0.319-0.359-0.789-0.584-1.288-0.617c-0.936-0.061-1.776,0.555-1.894,1.405c-0.011,0.071-0.051,0.134-0.11,0.174c-0.06,0.04-0.135,0.051-0.203,0.033c-0.189-0.052-0.381-0.084-0.566-0.096c-1.456-0.108-2.688,0.895-2.777,2.208C26.123,47.732,26.013,47.833,25.882,47.833z"/><path fill="#fdfcef" d="M53.182,42.6c-1.699-0.801-3.664-0.234-4.389,1.267c-0.09,0.186-0.157,0.379-0.201,0.574"/><path fill="#472b29" d="M48.592,44.691c-0.018,0-0.036-0.002-0.055-0.006c-0.135-0.031-0.22-0.165-0.189-0.299c0.049-0.215,0.122-0.427,0.219-0.627c0.784-1.621,2.903-2.242,4.722-1.384c0.125,0.059,0.179,0.208,0.12,0.333c-0.06,0.125-0.211,0.178-0.333,0.12c-1.573-0.741-3.393-0.227-4.059,1.149c-0.08,0.167-0.141,0.341-0.181,0.52C48.81,44.612,48.707,44.691,48.592,44.691z"/><path fill="#fff" d="M18.55 58.023H8.519c-.276 0-.5-.224-.5-.5s.224-.5.5-.5H18.55c.276 0 .5.224.5.5S18.827 58.023 18.55 58.023zM21.431 58.023h-1.446c-.276 0-.5-.224-.5-.5s.224-.5.5-.5h1.446c.276 0 .5.224.5.5S21.708 58.023 21.431 58.023zM25.486 58.023H22.94c-.276 0-.5-.224-.5-.5s.224-.5.5-.5h2.546c.276 0 .5.224.5.5S25.762 58.023 25.486 58.023zM25.486 59.888H15.87c-.276 0-.5-.224-.5-.5s.224-.5.5-.5h9.616c.276 0 .5.224.5.5S25.762 59.888 25.486 59.888zM14.137 59.888h-.58c-.276 0-.5-.224-.5-.5s.224-.5.5-.5h.58c.276 0 .5.224.5.5S14.414 59.888 14.137 59.888zM11.761 59.888h-1.457c-.276 0-.5-.224-.5-.5s.224-.5.5-.5h1.457c.276 0 .5.224.5.5S12.038 59.888 11.761 59.888zM20.897 56.158H15.87c-.276 0-.5-.224-.5-.5s.224-.5.5-.5h5.027c.276 0 .5.224.5.5S21.173 56.158 20.897 56.158zM20.897 54.293h-1.258c-.276 0-.5-.224-.5-.5s.224-.5.5-.5h1.258c.276 0 .5.224.5.5S21.173 54.293 20.897 54.293zM17.628 61.753H15.87c-.276 0-.5-.224-.5-.5s.224-.5.5-.5h1.758c.276 0 .5.224.5.5S17.904 61.753 17.628 61.753zM70.18 22.088H60.15c-.276 0-.5-.224-.5-.5s.224-.5.5-.5h10.03c.276 0 .5.224.5.5S70.457 22.088 70.18 22.088zM73.061 22.088h-1.445c-.276 0-.5-.224-.5-.5s.224-.5.5-.5h1.445c.276 0 .5.224.5.5S73.337 22.088 73.061 22.088zM77.116 22.088H74.57c-.276 0-.5-.224-.5-.5s.224-.5.5-.5h2.546c.276 0 .5.224.5.5S77.392 22.088 77.116 22.088zM75.09 18.358h-9.616c-.276 0-.5-.224-.5-.5s.224-.5.5-.5h9.616c.276 0 .5.224.5.5S75.367 18.358 75.09 18.358zM63.743 18.358h-.58c-.276 0-.5-.224-.5-.5s.224-.5.5-.5h.58c.276 0 .5.224.5.5S64.019 18.358 63.743 18.358zM61.366 18.358H59.91c-.276 0-.5-.224-.5-.5s.224-.5.5-.5h1.456c.276 0 .5.224.5.5S61.642 18.358 61.366 18.358zM72.527 20.223H67.5c-.276 0-.5-.224-.5-.5s.224-.5.5-.5h5.027c.276 0 .5.224.5.5S72.803 20.223 72.527 20.223z"/><path fill="#fff" d="M72.527 18.358H71.27c-.276 0-.5-.224-.5-.5s.224-.5.5-.5h1.257c.276 0 .5.224.5.5S72.803 18.358 72.527 18.358zM66.045 20.223h-1.759c-.276 0-.5-.224-.5-.5s.224-.5.5-.5h1.759c.276 0 .5.224.5.5S66.321 20.223 66.045 20.223z"/><path fill="#707023" d="M68.937 33.293L42.543 33.293 38.487 26.567 72.87 26.567z"/><path fill="#472b29" d="M68.937,33.668H42.543c-0.132,0-0.253-0.069-0.321-0.181l-4.056-6.726c-0.069-0.116-0.071-0.26-0.005-0.378c0.066-0.118,0.191-0.19,0.326-0.19H72.87c0.135,0,0.259,0.072,0.325,0.188c0.067,0.116,0.066,0.26-0.002,0.376l-3.932,6.726C69.194,33.598,69.07,33.668,68.937,33.668z M42.754,32.918h25.968l3.494-5.976H39.151L42.754,32.918z"/><path fill="#8c9136" d="M47.419 49.822L37.726 26.567 49.523 26.567 57.632 46.411"/><path fill="#472b29" d="M47.42,50.197c-0.146,0-0.286-0.087-0.346-0.23l-9.694-23.254c-0.049-0.116-0.036-0.248,0.033-0.353c0.07-0.104,0.188-0.167,0.312-0.167h11.798c0.152,0,0.289,0.092,0.347,0.233l8.109,19.844c0.079,0.192-0.013,0.411-0.205,0.489c-0.188,0.078-0.41-0.013-0.488-0.205l-8.015-19.611H38.288l9.478,22.735c0.08,0.191-0.01,0.411-0.201,0.491C47.516,50.187,47.467,50.197,47.42,50.197z"/><path fill="#b7c13a" d="M63.05 50.122L72.87 26.567 61.073 26.567 51.413 49.822"/><path fill="#472b29" d="M63.05,50.497c-0.048,0-0.097-0.009-0.145-0.029c-0.191-0.08-0.281-0.299-0.201-0.491l9.603-23.036H61.323L51.76,49.966c-0.08,0.191-0.299,0.283-0.49,0.202c-0.191-0.079-0.282-0.299-0.203-0.49l9.659-23.254c0.059-0.14,0.195-0.231,0.347-0.231H72.87c0.125,0,0.242,0.062,0.312,0.167c0.069,0.104,0.082,0.236,0.033,0.353l-9.819,23.555C63.337,50.411,63.197,50.497,63.05,50.497z"/><path fill="#472b29" d="M63.686 42.108c-.032 0-.064-.006-.095-.019-.128-.052-.189-.198-.137-.326l6.117-14.857c.053-.128.203-.191.326-.136.128.052.189.198.137.326l-6.117 14.857C63.878 42.05 63.785 42.108 63.686 42.108zM62.963 43.863c-.032 0-.064-.006-.095-.019-.128-.052-.189-.198-.137-.326l.303-.735c.053-.128.203-.19.326-.136.128.052.189.198.137.326l-.303.735C63.155 43.805 63.062 43.863 62.963 43.863zM47.732 44.608c-.1 0-.193-.06-.232-.158L40.68 27.196c-.051-.128.012-.273.141-.324.13-.052.273.013.324.141l6.819 17.253c.051.128-.012.273-.141.324C47.794 44.602 47.762 44.608 47.732 44.608zM60.945 48.639c-.034 0-.068-.007-.102-.021-.126-.056-.183-.204-.127-.33l1.648-3.71c.056-.126.204-.184.33-.127.126.056.183.204.127.33l-1.648 3.71C61.132 48.583 61.041 48.639 60.945 48.639z"/><g><path fill="#fbcd59" d="M54.147 44.915A15.345 15.345 0 1 0 54.147 75.605A15.345 15.345 0 1 0 54.147 44.915Z"/><path fill="#472b29" d="M54.147,76.305c-8.847,0-16.045-7.198-16.045-16.045S45.3,44.214,54.147,44.214c8.848,0,16.046,7.198,16.046,16.045S62.995,76.305,54.147,76.305z M54.147,45.615c-8.075,0-14.645,6.57-14.645,14.645s6.569,14.645,14.645,14.645s14.646-6.57,14.646-14.645S62.222,45.615,54.147,45.615z"/></g><g><path fill="#472b29" d="M66.437 64.911c-.028 0-.057-.005-.084-.015-.13-.046-.198-.189-.151-.32.495-1.383.746-2.835.746-4.317 0-7.058-5.742-12.8-12.801-12.8-.138 0-.25-.112-.25-.25s.112-.25.25-.25c7.334 0 13.301 5.966 13.301 13.3 0 1.54-.261 3.049-.775 4.486C66.636 64.848 66.54 64.911 66.437 64.911zM46.161 70.832c-.054 0-.107-.017-.153-.052-3.28-2.542-5.161-6.376-5.161-10.52 0-4.397 2.171-8.506 5.808-10.99.113-.078.27-.048.347.065.078.114.049.27-.065.348-3.499 2.391-5.589 6.344-5.589 10.577 0 3.988 1.811 7.679 4.968 10.125.109.084.129.242.044.351C46.309 70.799 46.235 70.832 46.161 70.832zM48.351 72.205c-.037 0-.075-.008-.111-.026-.338-.168-.675-.354-1.001-.552-.118-.072-.155-.226-.084-.343.073-.119.229-.156.344-.083.313.191.638.37.964.531.123.062.174.211.112.335C48.532 72.155 48.443 72.205 48.351 72.205zM54.147 73.56c-1.348 0-2.677-.201-3.95-.596-.132-.041-.205-.181-.164-.313.041-.131.181-.206.312-.165 1.226.381 2.505.574 3.802.574.138 0 .25.112.25.25S54.285 73.56 54.147 73.56z"/></g><g><path fill="#e0a825" d="M54.147 55.799L55.597 58.736 58.838 59.207 56.493 61.493 57.046 64.721 54.147 63.197 51.248 64.721 51.802 61.493 49.457 59.207 52.698 58.736z"/><path fill="#472b29" d="M51.249,65.071c-0.072,0-0.145-0.022-0.206-0.067c-0.107-0.078-0.161-0.211-0.139-0.342l0.522-3.047l-2.214-2.158c-0.096-0.093-0.13-0.232-0.089-0.359c0.041-0.126,0.15-0.219,0.282-0.238l3.06-0.444l1.368-2.772c0.117-0.239,0.51-0.239,0.627,0l1.368,2.772l3.06,0.444c0.132,0.019,0.241,0.111,0.282,0.238c0.041,0.127,0.007,0.266-0.089,0.359l-2.213,2.158l0.522,3.047c0.022,0.131-0.031,0.264-0.139,0.342c-0.108,0.079-0.251,0.089-0.369,0.026l-2.736-1.438l-2.735,1.438C51.36,65.057,51.304,65.071,51.249,65.071z M54.147,62.847c0.056,0,0.112,0.014,0.163,0.041l2.271,1.194l-0.434-2.529c-0.02-0.113,0.018-0.229,0.101-0.31l1.837-1.791l-2.54-0.369c-0.113-0.017-0.212-0.088-0.263-0.191l-1.136-2.301l-1.136,2.301c-0.051,0.104-0.149,0.175-0.263,0.191l-2.54,0.369l1.838,1.791c0.083,0.08,0.12,0.196,0.101,0.31l-0.434,2.529l2.271-1.194C54.035,62.86,54.091,62.847,54.147,62.847z"/></g><g><path fill="#472b29" d="M53.453 33.543c-.1 0-.194-.06-.232-.159l-2.646-6.726c-.051-.128.013-.273.141-.324.13-.053.274.012.324.141l2.646 6.726c.051.128-.013.273-.141.324C53.514 33.538 53.483 33.543 53.453 33.543zM54.855 33.543c-.1 0-.194-.06-.232-.159l-2.646-6.726c-.051-.128.013-.273.141-.324.131-.053.274.012.324.141l2.646 6.726c.051.128-.013.273-.141.324C54.917 33.538 54.885 33.543 54.855 33.543zM56.257 33.543c-.1 0-.194-.06-.232-.159l-2.646-6.726c-.051-.128.013-.273.141-.324.13-.053.274.012.324.141l2.646 6.726c.051.128-.013.273-.141.324C56.319 33.538 56.288 33.543 56.257 33.543zM57.66 33.543c-.1 0-.194-.06-.232-.159l-2.646-6.726c-.051-.128.013-.273.141-.324.129-.053.274.012.324.141l2.646 6.726c.051.128-.013.273-.141.324C57.721 33.538 57.69 33.543 57.66 33.543zM58.61 32.395c-.1 0-.194-.06-.232-.159l-2.193-5.578c-.051-.128.013-.273.141-.324.13-.053.274.012.324.141l2.193 5.578c.051.128-.013.273-.141.324C58.671 32.39 58.64 32.395 58.61 32.395zM59.333 30.666c-.1 0-.194-.06-.232-.159l-1.514-3.849c-.051-.128.013-.273.141-.324.129-.053.274.012.324.141l1.514 3.849c.051.128-.013.273-.141.324C59.394 30.661 59.363 30.666 59.333 30.666zM60.086 29.015c-.1 0-.194-.06-.232-.158l-.865-2.198c-.051-.129.013-.274.141-.324.13-.053.274.013.324.141l.865 2.198c.051.129-.013.274-.141.324C60.147 29.01 60.116 29.015 60.086 29.015z"/></g><g><path fill="#fdfcef" d="M72.461,82.605c1.883,0,3.517,0,3.54,0c2.11,0,3.821-1.674,3.821-3.739c0-1.802-1.302-3.305-3.035-3.66c0.02-0.158,0.034-0.317,0.034-0.48c0-2.139-1.772-3.873-3.957-3.873c-1.29,0-2.433,0.607-3.155,1.543c-0.185-2.381-2.358-4.218-4.9-3.913c-1.859,0.223-3.397,1.629-3.739,3.431c-0.11,0.578-0.098,1.139,0.011,1.665c-0.498-0.525-1.208-0.856-1.998-0.856c-1.446,0-2.627,1.102-2.72,2.494c-0.657-0.142-1.371-0.133-2.123,0.143c-1.438,0.528-2.462,1.853-2.522,3.356c-0.085,2.133,1.657,3.889,3.818,3.889c0.164,0,0.741,0,0.874,0h7.934 M65.983,82.605h0.36"/><path fill="#472b29" d="M76.001,83.105h-3.54c-0.276,0-0.5-0.224-0.5-0.5s0.224-0.5,0.5-0.5h3.54c1.831,0,3.321-1.453,3.321-3.239c0-1.524-1.108-2.857-2.637-3.17c-0.257-0.052-0.429-0.294-0.396-0.554c0.018-0.137,0.03-0.275,0.03-0.416c0-1.86-1.551-3.373-3.457-3.373c-1.093,0-2.099,0.492-2.76,1.348c-0.125,0.164-0.342,0.233-0.538,0.174c-0.198-0.059-0.34-0.234-0.355-0.44c-0.079-1.019-0.565-1.943-1.37-2.603c-0.827-0.68-1.888-0.985-2.973-0.853c-1.646,0.197-3.006,1.442-3.308,3.028c-0.094,0.494-0.09,0.989,0.01,1.471c0.046,0.219-0.06,0.441-0.258,0.544c-0.197,0.104-0.439,0.064-0.594-0.099c-0.429-0.452-1.01-0.7-1.636-0.7c-1.17,0-2.146,0.891-2.221,2.027c-0.01,0.145-0.082,0.279-0.198,0.366c-0.115,0.088-0.264,0.12-0.406,0.089c-0.641-0.139-1.244-0.098-1.847,0.124c-1.262,0.464-2.144,1.632-2.193,2.906c-0.035,0.875,0.282,1.708,0.895,2.345c0.635,0.661,1.495,1.024,2.423,1.024h8.808c0.276,0,0.5,0.224,0.5,0.5s-0.224,0.5-0.5,0.5h-8.808c-1.185,0-2.331-0.485-3.144-1.332c-0.803-0.835-1.219-1.928-1.174-3.078c0.066-1.674,1.212-3.203,2.849-3.805c0.612-0.225,1.244-0.307,1.881-0.245c0.344-1.396,1.629-2.424,3.136-2.424c0.499,0,0.979,0.11,1.413,0.319c0.009-0.24,0.036-0.481,0.082-0.721c0.382-2.01,2.098-3.586,4.171-3.835c1.365-0.162,2.686,0.218,3.727,1.073c0.747,0.613,1.277,1.409,1.546,2.301c0.791-0.648,1.785-1.007,2.843-1.007c2.458,0,4.457,1.962,4.457,4.373c0,0.034-0.001,0.068-0.002,0.103c1.765,0.555,3.004,2.188,3.004,4.038C80.322,81.203,78.383,83.105,76.001,83.105z M66.342,83.105h-0.359c-0.276,0-0.5-0.224-0.5-0.5s0.224-0.5,0.5-0.5h0.359c0.276,0,0.5,0.224,0.5,0.5S66.619,83.105,66.342,83.105z"/><path fill="#472b29" d="M74.294,77.302c-0.018,0-0.036-0.002-0.055-0.006c-0.135-0.03-0.22-0.164-0.189-0.299c0.038-0.167,0.095-0.329,0.17-0.48c0.603-1.222,2.273-1.673,3.721-1.006c0.126,0.058,0.181,0.207,0.122,0.332c-0.058,0.125-0.209,0.18-0.331,0.122c-1.207-0.556-2.579-0.208-3.063,0.774c-0.058,0.115-0.102,0.239-0.13,0.367C74.511,77.223,74.408,77.302,74.294,77.302z"/><g><path fill="#472b29" d="M69.134,83.105h-1.107c-0.276,0-0.5-0.224-0.5-0.5s0.224-0.5,0.5-0.5h1.107c0.276,0,0.5,0.224,0.5,0.5S69.411,83.105,69.134,83.105z"/></g></g><g><path fill="#f1bc19" d="M76.736 34.199L77.625 36.002 79.614 36.291 78.175 37.694 78.515 39.675 76.736 38.739 74.957 39.675 75.296 37.694 73.857 36.291 75.846 36.002z"/><path fill="#472b29" d="M78.515,40.025c-0.056,0-0.111-0.013-0.163-0.041l-1.616-0.85l-1.616,0.85c-0.119,0.062-0.26,0.052-0.369-0.026c-0.107-0.078-0.161-0.211-0.139-0.342l0.309-1.8l-1.308-1.274c-0.096-0.093-0.13-0.232-0.089-0.358c0.041-0.127,0.15-0.219,0.282-0.238l1.808-0.263l0.809-1.638c0.117-0.239,0.51-0.239,0.627,0l0.809,1.638l1.808,0.263c0.132,0.019,0.241,0.111,0.282,0.238c0.041,0.126,0.007,0.266-0.089,0.358l-1.308,1.274l0.309,1.8c0.022,0.131-0.031,0.264-0.139,0.342C78.66,40.002,78.587,40.025,78.515,40.025z M76.736,38.389c0.056,0,0.112,0.014,0.163,0.041l1.151,0.605l-0.22-1.282c-0.02-0.113,0.018-0.229,0.101-0.31l0.932-0.908l-1.288-0.187c-0.113-0.017-0.212-0.088-0.263-0.191l-0.576-1.167l-0.576,1.167c-0.051,0.104-0.149,0.175-0.263,0.191l-1.288,0.187l0.932,0.908c0.083,0.08,0.12,0.196,0.101,0.31l-0.22,1.282l1.151-0.605C76.624,38.403,76.68,38.389,76.736,38.389z"/></g><g><path fill="#f1bc19" d="M82.836 51.626L84.195 54.38 87.234 54.821 85.035 56.965 85.554 59.992 82.836 58.563 80.118 59.992 80.637 56.965 78.438 54.821 81.477 54.38z"/><path fill="#472b29" d="M80.118,60.342c-0.072,0-0.145-0.022-0.206-0.067c-0.107-0.078-0.161-0.211-0.139-0.342l0.487-2.845l-2.066-2.015c-0.096-0.093-0.13-0.232-0.089-0.359c0.041-0.126,0.15-0.219,0.282-0.238l2.857-0.416l1.277-2.589c0.117-0.239,0.51-0.239,0.627,0l1.278,2.589l2.857,0.416c0.132,0.019,0.241,0.111,0.282,0.238c0.041,0.126,0.007,0.266-0.089,0.358l-2.067,2.015l0.488,2.845c0.022,0.131-0.031,0.264-0.139,0.342c-0.108,0.079-0.25,0.089-0.369,0.027l-2.556-1.343l-2.555,1.343C80.229,60.328,80.173,60.342,80.118,60.342z M82.836,58.213c0.056,0,0.112,0.014,0.163,0.04l2.091,1.099l-0.399-2.328c-0.02-0.113,0.018-0.229,0.101-0.31l1.691-1.649l-2.338-0.34c-0.113-0.017-0.212-0.088-0.263-0.191l-1.046-2.118l-1.045,2.118c-0.051,0.104-0.149,0.175-0.263,0.191l-2.338,0.34l1.69,1.649c0.083,0.08,0.12,0.196,0.101,0.31l-0.398,2.328l2.09-1.099C82.723,58.226,82.78,58.213,82.836,58.213z"/></g><g><path fill="#f1bc19" d="M21.431 63.297L22.531 65.525 24.989 65.882 23.21 67.616 23.63 70.065 21.431 68.909 19.232 70.065 19.652 67.616 17.873 65.882 20.332 65.525z"/><path fill="#472b29" d="M23.63,70.415c-0.056,0-0.111-0.013-0.163-0.041l-2.036-1.07l-2.036,1.07c-0.119,0.063-0.26,0.053-0.369-0.026c-0.107-0.078-0.161-0.211-0.139-0.342l0.389-2.268l-1.647-1.606c-0.096-0.093-0.13-0.232-0.089-0.359c0.041-0.126,0.151-0.219,0.283-0.238l2.276-0.331l1.019-2.063c0.117-0.239,0.51-0.239,0.627,0l1.019,2.063l2.275,0.331c0.132,0.019,0.242,0.111,0.283,0.238c0.041,0.127,0.007,0.266-0.089,0.359l-1.646,1.606l0.389,2.268c0.022,0.131-0.031,0.264-0.139,0.342C23.775,70.393,23.703,70.415,23.63,70.415z M21.431,68.559c0.056,0,0.112,0.014,0.163,0.041l1.571,0.826l-0.3-1.75c-0.02-0.113,0.018-0.229,0.101-0.31l1.271-1.239l-1.757-0.255c-0.113-0.017-0.212-0.088-0.263-0.191l-0.786-1.592l-0.786,1.592c-0.051,0.104-0.149,0.175-0.264,0.191l-1.757,0.255l1.271,1.239c0.083,0.08,0.12,0.196,0.101,0.31l-0.3,1.75l1.571-0.826C21.319,68.573,21.376,68.559,21.431,68.559z"/></g></svg>