<?xml version="1.0" encoding="UTF-8"?>
<!-- Generator: Adobe Illustrator 26.0.3, SVG Export Plug-In . SVG Version: 6.00 Build 0)  -->
<svg xmlns="http://www.w3.org/2000/svg" xmlns:xlink="http://www.w3.org/1999/xlink" version="1.1" id="Capa_1" x="0px" y="0px" viewBox="0 0 512 512" style="enable-background:new 0 0 512 512;" xml:space="preserve" width="512" height="512">
<g id="_Log_Out">
	<path style="fill:#33CCCC;" d="M509.268,263.257c3.843-4.083,3.557-11.293-0.543-15.102c0,0-126.77-124.576-126.77-124.576   c-4.333-4.258-11.297-4.196-15.556,0.136c-4.258,4.333-4.197,11.298,0.136,15.556l107.592,105.731H112.252c-6.075,0-11,4.925-11,11   c0,6.075,4.925,11,11,11h361.876l-107.592,105.73c-4.333,4.258-4.393,11.223-0.136,15.556c4.26,4.335,11.224,4.392,15.556,0.136   C382.658,387.638,508.73,263.978,509.268,263.257z"/>
	<path d="M247.655,512H53.273c-29.366,0-53.257-23.562-53.257-52.525V52.525C0.016,23.562,23.907,0,53.273,0h194.382   c29.366,0,53.257,23.562,53.257,52.525v99.661c0,6.075-4.925,11-11,11s-11-4.925-11-11V52.525C278.911,35.693,264.89,22,247.655,22   H53.273c-17.235,0-31.257,13.693-31.257,30.525v406.949c0,16.832,14.021,30.525,31.257,30.525h194.382   c17.235,0,31.257-13.693,31.257-30.525v-99.661c0-6.075,4.925-11,11-11s11,4.925,11,11v99.661   C300.911,488.438,277.021,512,247.655,512z"/>
</g>















</svg>
