<!DOCTYPE svg PUBLIC "-//W3C//DTD SVG 1.1//EN" "http://www.w3.org/Graphics/SVG/1.1/DTD/svg11.dtd">
<!-- Uploaded to: SVG Repo, www.svgrepo.com, Transformed by: SVG Repo Mixer Tools -->
<svg height="800px" width="800px" version="1.1" id="Layer_1" xmlns="http://www.w3.org/2000/svg" xmlns:xlink="http://www.w3.org/1999/xlink" viewBox="-50.39 -50.39 604.69 604.69" xml:space="preserve" fill="#5a150b" stroke="#5a150b" stroke-width="9.574309">
<g id="SVGRepo_bgCarrier" stroke-width="0">
<rect x="-50.39" y="-50.39" width="604.69" height="604.69" rx="302.345" fill="#adeada" strokewidth="0"/>
</g>
<g id="SVGRepo_tracerCarrier" stroke-linecap="round" stroke-linejoin="round"/>
<g id="SVGRepo_iconCarrier"> <path style="fill:#fce7d0;" d="M158.089,252.809v-52.053c0-18.773,15.36-34.133,34.133-34.133s32.427,14.507,34.133,34.133v-8.533 c0-18.773,15.36-34.133,34.133-34.133c18.773,0,34.133,15.36,34.133,34.133v17.067c0-18.773,15.36-34.133,34.133-34.133 s34.133,15.36,34.133,34.133v25.6c0-13.653,11.947-25.6,25.6-25.6s25.6,12.8,25.6,25.6v110.933c0,68.267-25.6,76.8-34.133,136.533 h-204.8c-9.387-48.64-37.547-104.96-65.707-153.6c-3.413-5.973-6.827-11.947-11.093-17.92c-18.773-30.72-7.68-75.947,28.16-75.947 C126.515,234.889,147.849,236.595,158.089,252.809L158.089,252.809z"/> <path style="fill:#5a150b;" d="M379.955,486.622h-204.8c-1.707,0-3.413-1.707-4.267-3.413c-8.533-40.96-29.867-92.16-64.853-151.893 c-3.413-5.973-6.827-11.947-11.093-17.92c-11.947-19.627-12.8-44.373-2.56-62.293c7.68-12.8,19.627-20.48,34.133-20.48 c2.56,0,4.267,1.707,4.267,4.267c0,2.56-1.707,4.267-4.267,4.267c-15.36,0-23.04,8.533-27.307,16.213 c-8.533,15.36-7.68,36.693,2.56,53.76c3.413,5.973,7.68,11.947,11.093,17.92c34.133,58.88,56.32,110.08,64.853,151.04h197.973 c4.267-23.893,10.24-40.107,17.067-55.467c8.533-20.48,16.213-39.253,16.213-76.8V234.889c0-11.093-10.24-21.333-21.333-21.333 s-21.333,10.24-21.333,21.333c0,2.56-1.707,4.267-4.267,4.267s-4.267-1.707-4.267-4.267v-25.6c0-16.213-13.653-29.867-29.867-29.867 s-29.867,13.653-29.867,29.867c0,2.56-1.707,4.267-4.267,4.267s-4.267-1.707-4.267-4.267v-17.067 c0-16.213-13.653-29.867-29.867-29.867s-29.867,13.653-29.867,29.867v8.533c0,2.56-1.707,4.267-4.267,4.267 c-2.56,0-4.267-1.707-4.267-3.413c-1.707-17.92-13.653-30.72-29.867-30.72s-29.867,13.653-29.867,29.867v59.733 c0,2.56-1.707,4.267-4.267,4.267c-2.56,0-4.267-1.707-4.267-4.267v-59.733c0-21.333,17.067-38.4,38.4-38.4 c13.653,0,24.747,6.827,31.573,17.92c5.12-15.36,19.627-26.453,36.693-26.453c18.773,0,34.987,13.653,37.547,32.427 c6.827-9.387,17.92-15.36,30.72-15.36c21.333,0,38.4,17.067,38.4,38.4v5.12c5.12-5.973,12.8-9.387,21.333-9.387 c15.36,0,29.867,14.507,29.867,29.867v110.933c0,39.253-8.533,59.733-17.067,80.213c-6.827,15.36-13.653,31.573-17.067,56.32 C384.222,484.915,381.662,486.622,379.955,486.622z M4.489,162.355c-1.707,0-3.413-1.707-4.267-3.413 c-0.853-2.56,0.853-4.267,3.413-5.12l324.267-68.267c2.56-0.853,4.267,0.853,5.12,3.413c0.853,2.56-0.853,4.267-3.413,5.12 L5.342,162.355H4.489z M499.422,162.355L499.422,162.355l-205.653-25.6c-2.56,0-4.267-2.56-3.413-5.12c0-2.56,2.56-4.267,5.12-3.413 l204.8,25.6c2.56,0,4.267,2.56,3.413,5.12C503.689,160.649,501.129,162.355,499.422,162.355z M345.822,111.155 c-0.853,0-1.707,0-2.56-0.853c-1.707-1.707-1.707-4.267-0.853-5.973l42.667-51.2c1.707-1.707,4.267-1.707,5.973-0.853 c1.707,1.707,1.707,4.267,0.853,5.973l-42.667,51.2C348.382,110.302,346.675,111.155,345.822,111.155z M123.955,94.089h-0.853 l-34.133-8.533c-2.56-0.853-3.413-2.56-3.413-5.12c0.853-2.56,2.56-3.413,5.12-3.413l34.133,8.533c2.56,0.853,3.413,2.56,3.413,5.12 C127.369,92.382,125.662,94.089,123.955,94.089z M465.289,77.022c-0.853,0-2.56,0-3.413-0.853c-1.707-1.707-1.707-4.267,0-5.973 l17.067-17.067c1.707-1.707,4.267-1.707,5.973,0s1.707,4.267,0,5.973l-17.067,17.067C467.849,77.022,466.142,77.022,465.289,77.022z M192.222,59.955c-1.707,0-3.413-0.853-4.267-2.56l-8.533-25.6c-0.853-2.56,0.853-4.267,2.56-5.12c2.56-0.853,4.267,0.853,5.12,2.56 l8.533,25.6c0.853,2.56-0.853,4.267-2.56,5.12C193.075,59.955,193.075,59.955,192.222,59.955z M294.622,59.955 c-2.56,0-4.267-1.707-4.267-4.267V21.555c0-2.56,1.707-4.267,4.267-4.267s4.267,1.707,4.267,4.267v34.133 C298.889,58.249,297.182,59.955,294.622,59.955z"/> </g>
</svg>